<?xml version="1.0" encoding="UTF-8"?><svg xmlns="http://www.w3.org/2000/svg" viewBox="0 0 766.43 766.43"><g id="Layer_1" image-rendering="optimizeQuality" shape-rendering="geometricPrecision" text-rendering="geometricPrecision"><path d="M409.09,125.6v20.61c46.44,5.04,88.83,23.4,123.29,51.12l15.39-15.39c5.85-12.42,15.48-26.01,27.99-38.7,29.43-29.7,63.99-43.29,77.13-30.24s-.09,47.7-29.52,77.4c-12.96,13.14-27,23.04-39.69,28.98l-14.58,14.58c27.72,34.56,46.08,76.95,51.12,123.29h21.69c12.96-4.68,29.34-7.47,47.16-7.56,41.85-.18,75.78,14.67,75.87,33.12,.09,18.54-33.75,33.66-75.6,33.84-18.45,.09-35.37-2.79-48.51-7.56h-20.61c-5.04,46.44-23.4,88.83-51.12,123.29l15.39,15.39c12.42,5.85,26.01,15.48,38.7,27.99,29.7,29.43,43.29,63.99,30.24,77.13s-47.7-.09-77.4-29.52c-13.14-12.96-23.04-27-28.98-39.69l-14.58-14.58c-34.56,27.72-76.95,46.08-123.29,51.12v21.69c4.68,12.96,7.47,29.34,7.56,47.16,.18,41.85-14.67,75.78-33.12,75.87-18.54,.09-33.66-33.75-33.84-75.6-.09-18.45,2.79-35.37,7.56-48.51v-20.61c-46.44-5.04-88.83-23.4-123.29-51.12l-15.39,15.39c-5.85,12.42-15.48,26.01-27.99,38.7-29.43,29.7-63.99,43.29-77.13,30.24s.09-47.7,29.52-77.4c12.96-13.14,27-23.04,39.69-28.98l14.58-14.58c-27.72-34.56-46.08-76.95-51.12-123.29h-21.69c-12.96,4.68-29.34,7.47-47.16,7.56-41.85,.18-75.78-14.67-75.87-33.12-.09-18.54,33.75-33.66,75.6-33.84,18.45-.09,35.37,2.79,48.51,7.56h20.61c5.04-46.44,23.4-88.83,51.12-123.29l-15.39-15.39c-12.42-5.85-26.01-15.48-38.7-27.99-29.7-29.43-43.29-63.99-30.24-77.13s47.7,.09,77.4,29.52c13.14,12.96,23.04,27,28.98,39.69l14.58,14.58c34.56-27.72,76.95-46.08,123.29-51.12v-21.69c-4.68-12.96-7.47-29.34-7.56-47.16-.18-41.85,14.67-75.78,33.12-75.87,18.54-.09,33.66,33.75,33.84,75.6,.09,18.45-2.79,35.37-7.56,48.51Zm-26.01,32.31c124.55,0,225.53,100.97,225.53,225.53s-100.97,225.53-225.53,225.53-225.53-100.97-225.53-225.53,100.97-225.53,225.53-225.53Zm0,8.46c119.87,0,217.07,97.19,217.07,217.07s-97.19,217.07-217.07,217.07-217.07-97.19-217.07-217.07,97.19-217.07,217.07-217.07Zm26.01,48.87v81.27c6.03,1.8,11.79,4.14,17.19,7.11l57.42-57.42c-21.6-15.84-46.98-26.73-74.61-30.96Zm111.32,67.68l-57.42,57.42c2.97,5.4,5.31,11.16,7.11,17.19h81.27c-4.23-27.63-15.12-53.01-30.96-74.61Zm30.96,126.53h-81.27c-1.8,6.03-4.14,11.79-7.11,17.19l57.42,57.42c15.84-21.6,26.73-46.98,30.96-74.61Zm-67.68,111.32l-57.42-57.42c-5.4,2.97-11.16,5.31-17.19,7.11v81.27c27.63-4.23,53.01-15.12,74.61-30.96Zm-126.53,30.96v-81.27c-6.03-1.8-11.79-4.14-17.19-7.11l-57.42,57.42c21.6,15.84,46.98,26.73,74.61,30.96Zm-111.32-67.68l57.42-57.42c-2.97-5.4-5.31-11.16-7.11-17.19h-81.27c4.23,27.63,15.12,53.01,30.96,74.61Zm-30.96-126.53h81.27c1.8-6.03,4.14-11.79,7.11-17.19l-57.42-57.42c-15.84,21.6-26.73,46.98-30.96,74.61Zm67.68-111.32l57.42,57.42c5.4-2.97,11.16-5.31,17.19-7.11v-81.27c-27.63,4.23-53.01,15.12-74.61,30.96Zm100.52,68.4c38.07,0,68.94,30.87,68.94,68.94s-30.87,68.94-68.94,68.94-68.94-30.87-68.94-68.94,30.87-68.94,68.94-68.94Zm0,10.35c32.4,0,58.68,26.28,58.68,58.68s-26.28,58.68-58.68,58.68-58.68-26.28-58.68-58.68,26.28-58.68,58.68-58.68Z" fill="#29a7d9" fill-rule="evenodd" stroke="#0070bd" stroke-miterlimit="10" stroke-width="3"/></g></svg>