<?xml version="1.0" encoding="UTF-8"?><svg id="Layer_1" xmlns="http://www.w3.org/2000/svg" viewBox="0 0 771 314.5"><path d="M131.3,42.92v5.72c12.88,1.4,24.64,6.49,34.2,14.18l4.27-4.27c1.62-3.44,4.29-7.21,7.76-10.73,8.16-8.24,17.75-12.01,21.39-8.39s-.02,13.23-8.19,21.47c-3.59,3.64-7.49,6.39-11.01,8.04l-4.04,4.04c7.69,9.59,12.78,21.34,14.18,34.2h6.02c3.59-1.3,8.14-2.07,13.08-2.1,11.61-.05,21.02,4.07,21.04,9.19,.02,5.14-9.36,9.34-20.97,9.39-5.12,.02-9.81-.77-13.46-2.1h-5.72c-1.4,12.88-6.49,24.64-14.18,34.2l4.27,4.27c3.44,1.62,7.21,4.29,10.73,7.76,8.24,8.16,12.01,17.75,8.39,21.39s-13.23-.02-21.47-8.19c-3.64-3.59-6.39-7.49-8.04-11.01l-4.04-4.04c-9.59,7.69-21.34,12.78-34.2,14.18v6.02c1.3,3.59,2.07,8.14,2.1,13.08,.05,11.61-4.07,21.02-9.19,21.04-5.14,.02-9.34-9.36-9.39-20.97-.02-5.12,.77-9.81,2.1-13.46v-5.72c-12.88-1.4-24.64-6.49-34.2-14.18l-4.27,4.27c-1.62,3.44-4.29,7.21-7.76,10.73-8.16,8.24-17.75,12.01-21.39,8.39s.02-13.23,8.19-21.47c3.59-3.64,7.49-6.39,11.01-8.04l4.04-4.04c-7.69-9.59-12.78-21.34-14.18-34.2h-6.02c-3.59,1.3-8.14,2.07-13.08,2.1-11.61,.05-21.02-4.07-21.04-9.19-.02-5.14,9.36-9.34,20.97-9.39,5.12-.02,9.81,.77,13.46,2.1h5.72c1.4-12.88,6.49-24.64,14.18-34.2l-4.27-4.27c-3.44-1.62-7.21-4.29-10.73-7.76-8.24-8.16-12.01-17.75-8.39-21.39,3.62-3.64,13.23,.02,21.47,8.19,3.64,3.59,6.39,7.49,8.04,11.01l4.04,4.04c9.59-7.69,21.34-12.78,34.2-14.18v-6.02c-1.3-3.59-2.07-8.14-2.1-13.08-.05-11.61,4.07-21.02,9.19-21.04,5.14-.02,9.34,9.36,9.39,20.97,.02,5.12-.77,9.81-2.1,13.46Zm-7.21,8.96c34.55,0,62.56,28.01,62.56,62.56s-28.01,62.56-62.56,62.56-62.56-28.01-62.56-62.56,28.01-62.56,62.56-62.56Zm0,2.35c33.25,0,60.21,26.96,60.21,60.21s-26.96,60.21-60.21,60.21-60.21-26.96-60.21-60.21,26.96-60.21,60.21-60.21Zm7.21,13.56v22.54c1.67,.5,3.27,1.15,4.77,1.97l15.93-15.93c-5.99-4.39-13.03-7.41-20.69-8.59Zm30.88,18.77l-15.93,15.93c.82,1.5,1.47,3.1,1.97,4.77h22.54c-1.17-7.66-4.19-14.7-8.59-20.69Zm8.59,35.1h-22.54c-.5,1.67-1.15,3.27-1.97,4.77l15.93,15.93c4.39-5.99,7.41-13.03,8.59-20.69Zm-18.77,30.88l-15.93-15.93c-1.5,.82-3.1,1.47-4.77,1.97v22.54c7.66-1.17,14.7-4.19,20.69-8.59Zm-35.1,8.59v-22.54c-1.67-.5-3.27-1.15-4.77-1.97l-15.93,15.93c5.99,4.39,13.03,7.41,20.69,8.59Zm-30.88-18.77l15.93-15.93c-.82-1.5-1.47-3.1-1.97-4.77h-22.54c1.17,7.66,4.19,14.7,8.59,20.69Zm-8.59-35.1h22.54c.5-1.67,1.15-3.27,1.97-4.77l-15.93-15.93c-4.39,5.99-7.41,13.03-8.59,20.69Zm18.77-30.88l15.93,15.93c1.5-.82,3.1-1.47,4.77-1.97v-22.54c-7.66,1.17-14.7,4.19-20.69,8.59Zm27.88,18.97c10.56,0,19.12,8.56,19.12,19.12s-8.56,19.12-19.12,19.12-19.12-8.56-19.12-19.12,8.56-19.12,19.12-19.12Zm0,2.87c8.99,0,16.28,7.29,16.28,16.28s-7.29,16.28-16.28,16.28-16.28-7.29-16.28-16.28,7.29-16.28,16.28-16.28Z" fill="#29abe2" fill-rule="evenodd"/><path d="M6.6,230.27c1.69-4.22,6.49-6.27,10.71-4.58l28.96,11.59c5.89,2.36,12.47,2.36,18.36,0l16.71-6.69c9.83-3.93,20.79-3.93,30.61,0l16.73,6.69c5.89,2.36,12.47,2.36,18.36,0l16.71-6.69c9.83-3.93,20.79-3.93,30.61,0l16.73,6.69c5.89,2.36,12.47,2.36,18.36,0l28.96-11.59c4.19-1.78,9.03,.17,10.81,4.36,1.78,4.19-.17,9.03-4.36,10.81-.11,.04-.21,.09-.32,.13l-28.98,11.59c-9.83,3.93-20.79,3.93-30.61,0l-16.71-6.69c-5.89-2.36-12.47-2.36-18.36,0l-16.73,6.69c-9.83,3.93-20.79,3.93-30.61,0l-16.71-6.69c-5.89-2.36-12.47-2.36-18.36,0l-16.73,6.69c-9.83,3.93-20.79,3.93-30.61,0l-28.96-11.59c-4.22-1.69-6.27-6.49-4.58-10.71Zm0,49.45c1.69-4.22,6.49-6.27,10.71-4.58l28.96,11.59c5.89,2.36,12.47,2.36,18.36,0l16.71-6.69c9.83-3.93,20.79-3.93,30.61,0l16.73,6.69c5.89,2.36,12.47,2.36,18.36,0l16.71-6.69c9.83-3.93,20.79-3.93,30.61,0l16.73,6.69c5.89,2.36,12.47,2.36,18.36,0l28.96-11.59c4.19-1.78,9.03,.17,10.81,4.36,1.78,4.19-.17,9.03-4.36,10.81-.11,.04-.21,.09-.32,.13l-28.98,11.59c-9.83,3.93-20.79,3.93-30.61,0l-16.71-6.69c-5.89-2.36-12.47-2.36-18.36,0l-16.73,6.69c-9.83,3.93-20.79,3.93-30.61,0l-16.71-6.69c-5.89-2.36-12.47-2.36-18.36,0l-16.73,6.69c-9.83,3.93-20.79,3.93-30.61,0l-28.96-11.59c-4.22-1.69-6.27-6.49-4.58-10.71Z" fill="#0071bc"/><path d="M254.6,230.27c1.69-4.22,6.49-6.27,10.71-4.58l28.96,11.59c5.89,2.36,12.47,2.36,18.36,0l16.71-6.69c9.83-3.93,20.79-3.93,30.61,0l16.73,6.69c5.89,2.36,12.47,2.36,18.36,0l16.71-6.69c9.83-3.93,20.79-3.93,30.61,0l16.73,6.69c5.89,2.36,12.47,2.36,18.36,0l28.96-11.59c4.19-1.78,9.03,.17,10.81,4.36,1.78,4.19-.17,9.03-4.36,10.81-.11,.04-.21,.09-.32,.13l-28.98,11.59c-9.83,3.93-20.79,3.93-30.61,0l-16.71-6.69c-5.89-2.36-12.47-2.36-18.36,0l-16.73,6.69c-9.83,3.93-20.79,3.93-30.61,0l-16.71-6.69c-5.89-2.36-12.47-2.36-18.36,0l-16.73,6.69c-9.83,3.93-20.79,3.93-30.61,0l-28.96-11.59c-4.22-1.69-6.27-6.49-4.58-10.71Zm0,49.45c1.69-4.22,6.49-6.27,10.71-4.58l28.96,11.59c5.89,2.36,12.47,2.36,18.36,0l16.71-6.69c9.83-3.93,20.79-3.93,30.61,0l16.73,6.69c5.89,2.36,12.47,2.36,18.36,0l16.71-6.69c9.83-3.93,20.79-3.93,30.61,0l16.73,6.69c5.89,2.36,12.47,2.36,18.36,0l28.96-11.59c4.19-1.78,9.03,.17,10.81,4.36,1.78,4.19-.17,9.03-4.36,10.81-.11,.04-.21,.09-.32,.13l-28.98,11.59c-9.83,3.93-20.79,3.93-30.61,0l-16.71-6.69c-5.89-2.36-12.47-2.36-18.36,0l-16.73,6.69c-9.83,3.93-20.79,3.93-30.61,0l-16.71-6.69c-5.89-2.36-12.47-2.36-18.36,0l-16.73,6.69c-9.83,3.93-20.79,3.93-30.61,0l-28.96-11.59c-4.22-1.69-6.27-6.49-4.58-10.71Z" fill="#0071bc"/><path d="M508.6,230.27c1.69-4.22,6.49-6.27,10.71-4.58l28.96,11.59c5.89,2.36,12.47,2.36,18.36,0l16.71-6.69c9.83-3.93,20.79-3.93,30.61,0l16.73,6.69c5.89,2.36,12.47,2.36,18.36,0l16.71-6.69c9.83-3.93,20.79-3.93,30.61,0l16.73,6.69c5.89,2.36,12.47,2.36,18.36,0l28.96-11.59c4.19-1.78,9.03,.17,10.81,4.36,1.78,4.19-.17,9.03-4.36,10.81-.11,.04-.21,.09-.32,.13l-28.98,11.59c-9.83,3.93-20.79,3.93-30.61,0l-16.71-6.69c-5.89-2.36-12.47-2.36-18.36,0l-16.73,6.69c-9.83,3.93-20.79,3.93-30.61,0l-16.71-6.69c-5.89-2.36-12.47-2.36-18.36,0l-16.73,6.69c-9.83,3.93-20.79,3.93-30.61,0l-28.96-11.59c-4.22-1.69-6.27-6.49-4.58-10.71Zm0,49.45c1.69-4.22,6.49-6.27,10.71-4.58l28.96,11.59c5.89,2.36,12.47,2.36,18.36,0l16.71-6.69c9.83-3.93,20.79-3.93,30.61,0l16.73,6.69c5.89,2.36,12.47,2.36,18.36,0l16.71-6.69c9.83-3.93,20.79-3.93,30.61,0l16.73,6.69c5.89,2.36,12.47,2.36,18.36,0l28.96-11.59c4.19-1.78,9.03,.17,10.81,4.36,1.78,4.19-.17,9.03-4.36,10.81-.11,.04-.21,.09-.32,.13l-28.98,11.59c-9.83,3.93-20.79,3.93-30.61,0l-16.71-6.69c-5.89-2.36-12.47-2.36-18.36,0l-16.73,6.69c-9.83,3.93-20.79,3.93-30.61,0l-16.71-6.69c-5.89-2.36-12.47-2.36-18.36,0l-16.73,6.69c-9.83,3.93-20.79,3.93-30.61,0l-28.96-11.59c-4.22-1.69-6.27-6.49-4.58-10.71Z" fill="#0071bc"/><text transform="translate(260.29 201.44)" fill="#0071bc" font-family="Ubuntu-Light, Ubuntu" font-size="94" stroke="#fff" stroke-miterlimit="10" stroke-width="2"><tspan x="0" y="0">Adventures</tspan></text><text transform="translate(251.92 120.99)" fill="#0071bc" font-family="Ubuntu-Light, Ubuntu" font-size="143" stroke="#fff" stroke-miterlimit="10" stroke-width="3"><tspan x="0" y="0">Boating</tspan></text></svg>